<svg xmlns="http://www.w3.org/2000/svg" width="48" height="48" viewBox="0 0 48 48"><defs><style>.a{fill:none;}.b{fill:#ef4523;fill-rule:evenodd;}</style></defs><rect class="a" width="48" height="48"/><rect class="a" width="48" height="48"/><g transform="translate(2 2)"><path class="b" d="M24,2A22,22,0,1,0,46,24,22.008,22.008,0,0,0,24,2Zm9.988,30.47L32.47,33.988a2.191,2.191,0,0,1-3.1,0l-6.71-6.71a7.611,7.611,0,0,1-9.262-10.8l5.17,5.17,3.1-3.1-5.192-5.17a7.611,7.611,0,0,1,10.8,9.262l6.71,6.71A2.218,2.218,0,0,1,33.988,32.47Z" transform="translate(-2 -2)"/></g></svg>