<svg xmlns="http://www.w3.org/2000/svg" width="16" height="16" viewBox="0 0 16 16"><path d="M11.375,3.375a8,8,0,1,0,8,8A8,8,0,0,0,11.375,3.375ZM11.21,15.067a.793.793,0,1,1,.827-.792A.8.8,0,0,1,11.21,15.067Zm1.546-3.727c-.669.388-.9.673-.9,1.165v.3H10.525l-.012-.331a1.6,1.6,0,0,1,.908-1.692c.65-.388.923-.635.923-1.112a.934.934,0,0,0-1.035-.827.973.973,0,0,0-1.031.946H8.913A2.2,2.2,0,0,1,11.4,7.679c1.442,0,2.435.8,2.435,1.95A1.883,1.883,0,0,1,12.756,11.34Z" transform="translate(-3.375 -3.375)" fill="#00bfff"/></svg>