<svg xmlns="http://www.w3.org/2000/svg" width="24" height="24" viewBox="0 0 24 24"><rect width="24" height="24" fill="none"/><path d="M12,2A10,10,0,1,0,22,12,10,10,0,0,0,12,2Zm0,18a8,8,0,1,1,8-8A8.011,8.011,0,0,1,12,20Zm.89-8.9c-1.78-.59-2.64-.96-2.64-1.9,0-1.02,1.11-1.39,1.81-1.39a1.932,1.932,0,0,1,1.9,1.34l1.58-.67a3.425,3.425,0,0,0-2.66-2.23V5H11.13V6.26A3.084,3.084,0,0,0,8.51,9.22c0,2.27,2.25,2.91,3.35,3.31,1.58.56,2.28,1.07,2.28,2.03,0,1.13-1.05,1.61-1.98,1.61a2.641,2.641,0,0,1-2.4-2.09l-1.66.67a4.037,4.037,0,0,0,3.02,2.96V19h1.75V17.76a3.315,3.315,0,0,0,3.02-3.22C15.9,13.15,15.29,11.93,12.89,11.1Z" fill="#ef4523"/></svg>