<svg xmlns="http://www.w3.org/2000/svg" width="17" height="16.047" viewBox="0 0 17 16.047"><g transform="translate(35.528 -26.5)"><path d="M15.166,6.281l-1.257-.16a6.318,6.318,0,0,0-.38-.919l.776-1a.994.994,0,0,0-.082-1.323L13.17,1.827a1,1,0,0,0-1.327-.085l-1,.776a6.3,6.3,0,0,0-.919-.38L9.766.883A1,1,0,0,0,8.772,0h-1.5a1,1,0,0,0-.994.881l-.16,1.257a6.223,6.223,0,0,0-.919.38l-1-.776a1,1,0,0,0-1.323.082L1.827,2.876A1,1,0,0,0,1.742,4.2l.776,1a6.245,6.245,0,0,0-.38.919l-1.255.16A1,1,0,0,0,0,7.274v1.5a1,1,0,0,0,.881.994l1.257.16a6.318,6.318,0,0,0,.38.919l-.776,1a.994.994,0,0,0,.082,1.323L2.876,14.22A1,1,0,0,0,4.2,14.3l1-.776a6.173,6.173,0,0,0,.919.38l.16,1.254a1,1,0,0,0,.994.884h1.5a1,1,0,0,0,.994-.881l.16-1.257a6.318,6.318,0,0,0,.919-.38l1,.776a.994.994,0,0,0,1.323-.082L14.22,13.17a1,1,0,0,0,.085-1.327l-.776-1a6.173,6.173,0,0,0,.38-.919l1.254-.16a1,1,0,0,0,.883-.994v-1.5a1,1,0,0,0-.88-.994ZM8.023,11.366a3.343,3.343,0,1,1,3.343-3.343A3.347,3.347,0,0,1,8.023,11.366Z" transform="translate(-35.528 26.5)" fill="#ef4523"/><path d="M24.492,145.6l-4.071.963.693.693-3.238,3.238-2.046-2.046L10,154.277l1.833,1.833,4-4,2.046,2.046,5.071-5.071.581.581Zm0,0" transform="translate(-43.019 -113.796)" fill="#495057"/></g></svg>