<svg xmlns="http://www.w3.org/2000/svg" width="29.909" height="25.308" viewBox="0 0 29.909 25.308"><path d="M10.353,36.547h-6.9a3.329,3.329,0,0,0-2.445,1.006A3.329,3.329,0,0,0,0,40v6.9a3.327,3.327,0,0,0,1.006,2.444,3.329,3.329,0,0,0,2.445,1.007H7.477A1.718,1.718,0,0,1,9.2,52.077v.575A4.433,4.433,0,0,1,7.855,55.9,4.434,4.434,0,0,1,4.6,57.253H3.451a1.107,1.107,0,0,0-.809.342A1.105,1.105,0,0,0,2.3,58.4v2.3a1.106,1.106,0,0,0,.341.809,1.107,1.107,0,0,0,.809.342H4.6a8.968,8.968,0,0,0,3.568-.728,9.271,9.271,0,0,0,2.939-1.968,9.275,9.275,0,0,0,1.968-2.939,8.965,8.965,0,0,0,.728-3.568V40a3.436,3.436,0,0,0-3.451-3.451Z" transform="translate(0 -36.547)" fill="#00bfff"/><path d="M268.614,37.553a3.328,3.328,0,0,0-2.444-1.006h-6.9A3.436,3.436,0,0,0,255.817,40v6.9a3.436,3.436,0,0,0,3.451,3.451h4.026a1.718,1.718,0,0,1,1.726,1.726v.575a4.6,4.6,0,0,1-4.6,4.6h-1.15a1.167,1.167,0,0,0-1.151,1.15v2.3a1.167,1.167,0,0,0,1.151,1.151h1.15a8.969,8.969,0,0,0,3.568-.728,9.117,9.117,0,0,0,4.907-4.907,8.965,8.965,0,0,0,.728-3.568V40A3.327,3.327,0,0,0,268.614,37.553Z" transform="translate(-239.712 -36.547)" fill="#00bfff"/></svg>