<svg xmlns="http://www.w3.org/2000/svg" width="17.168" height="16" viewBox="0 0 17.168 16"><g transform="translate(0 -13.875)"><path d="M70.749,270.526a.719.719,0,0,0-.928-.072l-.007,0-.616.616a.709.709,0,0,0-.209.506.718.718,0,0,0,.715.715.752.752,0,0,0,.569-.273l.476-.476a.715.715,0,0,0,0-1.012Z" transform="translate(-66.085 -245.648)" fill="#495057"/><path d="M29.961,220.746a.716.716,0,0,0-1.012,0l-.539.54a.715.715,0,0,0,1.011,1.012l.54-.54A.716.716,0,0,0,29.961,220.746Z" transform="translate(-27.011 -197.962)" fill="#495057"/><path d="M117.026,314.025a.711.711,0,0,0-.506.21l-.54.54-.008.008a.715.715,0,0,0,1.019,1l.54-.54A.717.717,0,0,0,117.026,314.025Z" transform="translate(-110.899 -287.515)" fill="#495057"/><path d="M10.926,18.637a2.863,2.863,0,0,1-3.546-.4L6.13,16.989l1.561-1.561a4.4,4.4,0,1,0-6.212,6.2,1.981,1.981,0,0,1,2.939,1.861,1.987,1.987,0,0,1,1.714,1.824,1.99,1.99,0,0,1,1.9,1.461,1.985,1.985,0,0,1,1.989.607l.014-.017a.716.716,0,0,0,.918-1.078v0L8.115,23.443l.893-.893,2.81,2.81a.715.715,0,0,0,1.011-1.012l-2.81-2.81.893-.893,2.81,2.81a.715.715,0,0,0,1.012-1.012Z" transform="translate(0 -0.065)" fill="#ef4523"/><path d="M196.023,15.158a4.394,4.394,0,0,0-6.206,0l-1.765,1.765.358.358a1.6,1.6,0,0,0,2.256,0l.447-.447c.237.24,4.6,4.591,4.719,4.723a4.414,4.414,0,0,0,.192-6.4Z" transform="translate(-180.136 0)" fill="#495057"/><path d="M174.835,347.425a.716.716,0,0,0-1.012,0l-.54.54a.715.715,0,0,0,1.012,1.012l.54-.54A.719.719,0,0,0,174.835,347.425Z" transform="translate(-165.79 -319.309)" fill="#495057"/></g></svg>