<svg xmlns="http://www.w3.org/2000/svg" width="16" height="16" viewBox="0 0 16 16"><path d="M6.167,0h-5A1.168,1.168,0,0,0,0,1.167v3A1.168,1.168,0,0,0,1.167,5.333h5A1.168,1.168,0,0,0,7.333,4.167v-3A1.168,1.168,0,0,0,6.167,0Z" fill="#495057"/><path d="M6.167,10h-5A1.168,1.168,0,0,0,0,11.167v7a1.168,1.168,0,0,0,1.167,1.167h5a1.168,1.168,0,0,0,1.167-1.167v-7A1.168,1.168,0,0,0,6.167,10Z" transform="translate(0 -3.333)" fill="#ef4523"/><path d="M19.167,16h-5A1.168,1.168,0,0,0,13,17.167v3a1.168,1.168,0,0,0,1.167,1.167h5a1.168,1.168,0,0,0,1.167-1.167v-3A1.168,1.168,0,0,0,19.167,16Z" transform="translate(-4.333 -5.333)" fill="#495057"/><path d="M19.167,0h-5A1.168,1.168,0,0,0,13,1.167v7a1.168,1.168,0,0,0,1.167,1.167h5a1.168,1.168,0,0,0,1.167-1.167v-7A1.168,1.168,0,0,0,19.167,0Z" transform="translate(-4.333)" fill="#ef4523"/></svg>