<svg xmlns="http://www.w3.org/2000/svg" width="16" height="17.102" viewBox="0 0 16 17.102"><g transform="translate(-16.5)"><path d="M260.475,274a3.975,3.975,0,1,0,4.008,3.975A3.979,3.979,0,0,0,260.475,274Zm1.22,3.494-1.336,1.6a.5.5,0,0,1-.833-.1l-.534-1.069a.5.5,0,1,1,.9-.448l.192.384.846-1.015a.5.5,0,1,1,.77.642Z" transform="translate(-231.983 -264.848)" fill="#495057"/><path d="M28.276,2.854,26.243.752l0,0A2.521,2.521,0,0,0,24.453,0H18a1.5,1.5,0,0,0-1.5,1.5V14.5A1.5,1.5,0,0,0,18,16H24.43a4.975,4.975,0,0,1,4.062-7.85q.254,0,.5.025V4.609a2.491,2.491,0,0,0-.717-1.755ZM21.811,11.19H19.139a.5.5,0,1,1,0-1h2.672a.5.5,0,0,1,0,1Zm0-2.672H19.139a.5.5,0,1,1,0-1h2.672a.5.5,0,0,1,0,1Zm0-2.672H19.139a.5.5,0,1,1,0-1h2.672a.5.5,0,0,1,0,1Zm3.207,2.672h-.534a.5.5,0,1,1,0-1h.534a.5.5,0,0,1,0,1Zm0-2.672h-.534a.5.5,0,1,1,0-1h.534a.5.5,0,0,1,0,1Z" fill="#ef4523"/></g></svg>