<svg xmlns="http://www.w3.org/2000/svg" width="36" height="36.418" viewBox="0 0 36 36.418"><g transform="translate(0 0)"><path d="M35.993,7.852a.582.582,0,0,0-.031-.156c-.007-.02-.012-.038-.02-.057a.61.61,0,0,0-.122-.178L28.536.178a.6.6,0,0,0-.178-.122C28.34.048,28.322.043,28.3.036A.6.6,0,0,0,28.144,0c-.01,0-.021,0-.034,0H9.9A3.039,3.039,0,0,0,6.866,3.035V7.5a11.51,11.51,0,0,0,0,21.062v4.819A3.039,3.039,0,0,0,9.9,36.418H32.965A3.038,3.038,0,0,0,36,33.383V7.891c0-.013-.007-.025-.008-.038Zm-2.065-.569h-4.6a.607.607,0,0,1-.607-.607v-4.6ZM1.227,18.033A10.3,10.3,0,0,1,11.545,7.714q.517,0,1.025.05a10.29,10.29,0,0,1,9.166,8.723,10.42,10.42,0,0,1,.127,1.545,10.318,10.318,0,0,1-20.636,0Zm17.368,9.118c.083-.064.165-.128.246-.194a11.359,11.359,0,0,0,.86-.768,11.409,11.409,0,0,0,.768-.859c.066-.081.13-.164.194-.247s.153-.187.223-.285l5.174,5.181a1.807,1.807,0,0,1,0,2.568,1.849,1.849,0,0,1-2.57,0L18.31,27.374c.1-.071.189-.15.285-.223ZM32.965,35.2H9.9A1.821,1.821,0,0,1,8.08,33.383V29.038c.038.012.077.02.115.032.1.03.2.053.294.081.227.061.456.122.687.167.114.024.227.046.342.066.231.041.464.073.7.1.1.012.208.027.313.036.336.029.675.047,1.017.047a11.457,11.457,0,0,0,5.717-1.523L22.629,33.4a3.035,3.035,0,1,0,4.289-4.286L21.554,23.75a11.453,11.453,0,0,0,1.523-5.717q0-.577-.056-1.144A11.53,11.53,0,0,0,11.545,6.5c-.342,0-.68.019-1.017.047-.1.009-.209.024-.313.036q-.35.039-.7.1-.173.03-.345.066c-.228.047-.455.1-.679.165-.1.027-.2.052-.3.082-.038.012-.076.02-.114.032V3.035A1.821,1.821,0,0,1,9.9,1.214H27.5V6.677A1.821,1.821,0,0,0,29.324,8.5h5.463V33.383A1.821,1.821,0,0,1,32.965,35.2Zm0,0" fill="#00bfff"/><path d="M153.055,48.607a.607.607,0,0,0-.607-.607H139.095a.607.607,0,0,0,0,1.214h13.353A.607.607,0,0,0,153.055,48.607Zm0,0" transform="translate(-127.981 -44.358)" fill="#00bfff"/><path d="M322.379,192h-7.284a.607.607,0,1,0,0,1.214h7.284a.607.607,0,0,0,0-1.214Zm0,0" transform="translate(-290.627 -177.433)" fill="#00bfff"/><path d="M322.379,240h-7.284a.607.607,0,0,0,0,1.214h7.284a.607.607,0,0,0,0-1.214Zm0,0" transform="translate(-290.627 -221.791)" fill="#00bfff"/><path d="M315.593,288.607a.607.607,0,0,0-.607-.607H307.1a.607.607,0,1,0,0,1.214h7.891A.607.607,0,0,0,315.593,288.607Zm0,0" transform="translate(-283.234 -266.149)" fill="#00bfff"/><path d="M345.165,336.607a.607.607,0,0,0-.607-.607h-5.463a.607.607,0,1,0,0,1.214h5.463A.607.607,0,0,0,345.165,336.607Zm0,0" transform="translate(-312.806 -310.507)" fill="#00bfff"/><path d="M256.558,96.607a.607.607,0,0,0-.607-.607h-4.856a.607.607,0,1,0,0,1.214h4.856A.607.607,0,0,0,256.558,96.607Zm0,0" transform="translate(-231.483 -88.716)" fill="#00bfff"/><path d="M300.806,144.607A.607.607,0,0,0,300.2,144h-9.1a.607.607,0,1,0,0,1.214h9.1A.607.607,0,0,0,300.806,144.607Zm0,0" transform="translate(-268.448 -133.075)" fill="#00bfff"/><path d="M115.095,185.214h4.249a.607.607,0,1,0,0-1.214h-4.249a.607.607,0,1,0,0,1.214Zm0,0" transform="translate(-105.801 -170.04)" fill="#00bfff"/><path d="M92.806,232.607A.607.607,0,0,0,92.2,232h-9.1a.607.607,0,1,0,0,1.214h9.1A.607.607,0,0,0,92.806,232.607Zm0,0" transform="translate(-76.229 -214.398)" fill="#00bfff"/><path d="M119.344,280h-4.249a.607.607,0,0,0,0,1.214h4.249a.607.607,0,0,0,0-1.214Zm0,0" transform="translate(-105.801 -258.756)" fill="#00bfff"/><path d="M45.578,134.824a8.9,8.9,0,0,0,3.541-3.435c.048-.084.1-.165.145-.25.023-.044.042-.089.064-.133.092-.177.182-.354.261-.536s.142-.354.207-.532c.019-.052.042-.1.061-.154a9.109,9.109,0,1,0-4.28,5.044Zm-8.1-1.081a7.831,7.831,0,0,1-1.8-1.346,7.992,7.992,0,0,1-.99-1.2q-.215-.322-.4-.661a7.891,7.891,0,1,1,13.9.035v.005a7.757,7.757,0,0,1-3.188,3.186,7.868,7.868,0,0,1-7.533-.012Zm0,0" transform="translate(-29.712 -108.785)" fill="#00bfff"/><path d="M382.737,384a.607.607,0,0,0-.607.607v2.428a.607.607,0,0,1-.607.607h-2.428a.607.607,0,0,0,0,1.214h2.428a1.821,1.821,0,0,0,1.821-1.821v-2.428A.607.607,0,0,0,382.737,384Zm0,0" transform="translate(-349.771 -354.866)" fill="#00bfff"/></g></svg>