<svg xmlns="http://www.w3.org/2000/svg" width="17.455" height="16" viewBox="0 0 17.455 16"><g transform="translate(0 -1)"><path d="M15.273,1H2.182A2.184,2.184,0,0,0,0,3.182V7.815A2.63,2.63,0,0,0,4.6,9.567a2.785,2.785,0,0,0,4.127-.056,2.785,2.785,0,0,0,4.127.056,2.63,2.63,0,0,0,4.6-1.753V3.182A2.184,2.184,0,0,0,15.273,1ZM3.826,7.64v.174a1.186,1.186,0,0,1-2.372,0V5.364H3.826ZM8,7.64a1.36,1.36,0,1,1-2.719,0V5.364H8Zm4.174,0a1.36,1.36,0,1,1-2.719,0V5.364h2.719ZM16,7.815a1.186,1.186,0,0,1-2.372,0V5.364H16Z" fill="#ef4523"/><path d="M16,15.459v3.086a.728.728,0,0,1-.727.727H2.182a.728.728,0,0,1-.727-.727V15.459A4.1,4.1,0,0,1,0,14.666v3.879a2.184,2.184,0,0,0,2.182,2.182H15.273a2.184,2.184,0,0,0,2.182-2.182V14.666A4.086,4.086,0,0,1,16,15.459Z" transform="translate(0 -3.727)" fill="#495057"/></g></svg>