<svg xmlns="http://www.w3.org/2000/svg" width="20.226" height="20.226" viewBox="0 0 20.226 20.226"><g transform="translate(-1.886 -2.054)"><g transform="translate(0 0.195)"><g transform="translate(1.886 1.86)"><path d="M50.347,60.092A10.113,10.113,0,1,1,57.5,57.13,10.047,10.047,0,0,1,50.347,60.092Z" transform="translate(-40.234 -39.866)" fill="#00bfff"/></g><circle cx="8.237" cy="8.237" r="8.237" transform="translate(3.762 3.736)" fill="#00bfff"/></g><path d="M152.222,185.587a.94.94,0,0,1-.646-.256l-2.491-2.345c-.86-.809.392-2.222,1.291-1.376l1.845,1.738,5.032-4.754c.86-.809,2.191.531,1.291,1.376l-5.678,5.362A.94.94,0,0,1,152.222,185.587Z" transform="translate(-141.822 -169.797)" fill="#fff"/></g></svg>