<svg xmlns="http://www.w3.org/2000/svg" width="18.286" height="16" viewBox="0 0 18.286 16"><g transform="translate(0 -31.998)"><path d="M12.571,76.573H2.286V66.288H5.714V64H1.143A1.143,1.143,0,0,0,0,65.145V77.716a1.143,1.143,0,0,0,1.143,1.143H13.714a1.142,1.142,0,0,0,1.143-1.143V72.037H12.571Z" transform="translate(0 -30.861)" fill="#ef4523"/><path d="M141.486,35.541l-4.571-3.429a.572.572,0,0,0-.914.457v1.714h-1.714A6.292,6.292,0,0,0,128,40.57a.571.571,0,0,0,1.082.256l.135-.269a5.114,5.114,0,0,1,4.6-2.845H136v1.714a.571.571,0,0,0,.914.457l4.571-3.429a.571.571,0,0,0,0-.914Z" transform="translate(-123.429 0)" fill="#495057"/></g></svg>