<svg xmlns="http://www.w3.org/2000/svg" width="36" height="33.853" viewBox="0 0 36 33.853"><g transform="translate(0 -13.955)"><path d="M32.98,16.97A10.374,10.374,0,0,0,18,17.343a10.339,10.339,0,1,0-14.715,14.5A3.624,3.624,0,0,0,5.32,38.033a3.627,3.627,0,0,0,3.6,3.86,3.622,3.622,0,0,0,4.522,3.246,3.625,3.625,0,0,0,6.048,1.614c1.106-1.1,1.985-1.793,2.042-3.457a3.628,3.628,0,0,0,3.436-3.48,3.626,3.626,0,0,0,3.481-3.481,3.629,3.629,0,0,0,3.484-3.707l1.05-1.05A10.341,10.341,0,0,0,32.98,16.97ZM4.867,33.526l.986-.986A1.307,1.307,0,0,1,7.7,34.389l-.986.986a1.307,1.307,0,0,1-1.849-1.849Zm2.75,4.753A1.3,1.3,0,0,1,8,37.355l.987-.987a1.307,1.307,0,0,1,1.848,1.849l-.87.87a1.371,1.371,0,0,1-1.04.5A1.313,1.313,0,0,1,7.617,38.279Zm3.98,4.289a1.313,1.313,0,0,1,0-1.849l.87-.87a1.324,1.324,0,0,1,1.965-.116,1.309,1.309,0,0,1,0,1.849l-.986.986A1.308,1.308,0,0,1,11.6,42.568Zm7.244,1.567-.986.986a1.307,1.307,0,0,1-1.849,0,1.313,1.313,0,0,1,0-1.849l.986-.986a1.307,1.307,0,1,1,1.849,1.849Zm10.4-10.486a1.313,1.313,0,0,1-1.849,0l-5.136-5.136-1.632,1.632,5.136,5.136A1.307,1.307,0,1,1,23.91,37.13l-5.049-5.049-.087-.087-1.632,1.632.087.087,5.049,5.049a1.307,1.307,0,1,1-1.849,1.849h0a3.617,3.617,0,0,0-3.432-.9,3.633,3.633,0,0,0-3.481-2.672,3.629,3.629,0,0,0-3.133-3.334,3.623,3.623,0,0,0-5.369-3.4A8.037,8.037,0,1,1,16.367,18.975l-2.853,2.853L15.8,24.115a5.233,5.233,0,0,0,6.481.725l6.96,6.96A1.309,1.309,0,0,1,29.24,33.649Zm2.108-3.7L31,30.3q-.06-.066-.124-.13l-8.5-8.5-.816.816a2.919,2.919,0,0,1-4.123,0l-.654-.654L20,18.6C27.841,11.389,38.559,22.115,31.348,29.947Z" fill="#00bfff"/></g></svg>