<svg xmlns="http://www.w3.org/2000/svg" width="14" height="16.67" viewBox="0 0 14 16.67"><g transform="translate(0)"><path d="M172.32,245.711h5.015v1.1H172.32Zm0,0" transform="translate(-166.71 -237.711)" fill="#00bfff"/><path d="M172.32,309.512h5.015v1.116H172.32Zm0,0" transform="translate(-166.71 -299.435)" fill="#00bfff"/><path d="M106.191,245.711h1.176v5.27h-1.176Zm0,0" transform="translate(-102.734 -237.711)" fill="#00bfff"/><path d="M330,.313V3.558h3.256Zm0,0" transform="translate(-319.256 -0.302)" fill="#00bfff"/><path d="M10.256,4.233a.488.488,0,0,1-.488-.488V0H2.18A2.183,2.183,0,0,0,0,2.18V14.49a2.183,2.183,0,0,0,2.18,2.18h9.64A2.183,2.183,0,0,0,14,14.49V4.233ZM11.6,13.655a.592.592,0,0,1-.591.591H3.072a.592.592,0,0,1-.591-.591V7.615a.592.592,0,0,1,.591-.591h7.939a.592.592,0,0,1,.591.591Zm0,0" fill="#00bfff"/><path d="M172.32,373.773h5.015v1.1H172.32Zm0,0" transform="translate(-166.71 -361.604)" fill="#00bfff"/></g></svg>