<svg xmlns="http://www.w3.org/2000/svg" width="22.75" height="21.998" viewBox="0 0 22.75 21.998"><g transform="translate(0 -0.002)"><path d="M16.5,11A5.5,5.5,0,1,0,22,16.5,5.506,5.506,0,0,0,16.5,11Zm0,9.308a.635.635,0,1,1,.635-.635A.635.635,0,0,1,16.5,20.308Zm1.262-3.674a1.444,1.444,0,0,0-.627,1.347.635.635,0,0,1-1.269,0,2.734,2.734,0,0,1,1.123-2.354.943.943,0,0,0,.358-.748.849.849,0,1,0-1.692,0,.635.635,0,1,1-1.269,0,2.117,2.117,0,1,1,4.231,0,2.222,2.222,0,0,1-.854,1.756Z" transform="translate(0.75)" fill="#f0ad4e"/><path d="M17.98.11A8.741,8.741,0,0,0,11,2,8.741,8.741,0,0,0,4.02.11,1.762,1.762,0,0,0,2.5,1.84V12.81a1.756,1.756,0,0,0,1.96,1.73,7.369,7.369,0,0,1,4.55.96,1.983,1.983,0,0,1,.2.11c.01-.04.02-.07.03-.11a7.816,7.816,0,0,1,.45-1.34,8.768,8.768,0,0,0-5.4-1.11.259.259,0,0,1-.21-.07A.214.214,0,0,1,4,12.81V1.84a.266.266,0,0,1,.23-.25,7.3,7.3,0,0,1,6.02,1.74c.09.06.17.14.26.21a.734.734,0,0,0,.98,0c.09-.07.17-.15.26-.21a7.333,7.333,0,0,1,6.02-1.74.266.266,0,0,1,.23.25V9.01a8.362,8.362,0,0,1,1.5.23V1.84A1.762,1.762,0,0,0,17.98.11Z" fill="#f0ad4e"/><path d="M9.24,15.5c-.01.04-.02.07-.03.11A9.126,9.126,0,0,0,9.01,17H1.75A1.758,1.758,0,0,1,0,15.25V3.75A1.756,1.756,0,0,1,1.74,2H3A.75.75,0,0,1,3,3.5H1.75a.254.254,0,0,0-.25.25v11.5a.248.248,0,0,0,.25.25Z" fill="#f0ad4e"/><path d="M22,3.75v6.54a8.714,8.714,0,0,0-1.5-.74V3.75a.248.248,0,0,0-.25-.25H19A.75.75,0,0,1,19,2h1.25A1.758,1.758,0,0,1,22,3.75Z" fill="#f0ad4e"/><path d="M11.75,3v8.25a8.225,8.225,0,0,0-1.5,1.82V3a.75.75,0,0,1,1.5,0Z" fill="#f0ad4e"/></g></svg>