<svg xmlns="http://www.w3.org/2000/svg" width="24" height="24" viewBox="0 0 24 24"><g transform="translate(0 0)"><path d="M316.453,208.738a2.215,2.215,0,1,0,2.215,2.215A2.218,2.218,0,0,0,316.453,208.738Zm0,3.025a.809.809,0,1,1,.809-.809A.81.81,0,0,1,316.453,211.763Z" transform="translate(-299.508 -198.953)" fill="#ef4523"/><path d="M23.374,10.113l-1.491-.165.934-1.173a.7.7,0,0,0-.054-.936L21.081,6.162a.7.7,0,0,0-.937-.05l-1.149.924-.163-1.466a.7.7,0,0,0-.7-.626h-.485V.7a.7.7,0,0,0-.7-.7H5.2a.707.707,0,0,0-.5.206L.21,4.7A.707.707,0,0,0,0,5.2V23.3a.7.7,0,0,0,.7.7H16.945a.7.7,0,0,0,.7-.7V19.055h.485a.7.7,0,0,0,.7-.626L19,16.938l1.173.934a.7.7,0,0,0,.936-.054l1.676-1.684a.7.7,0,0,0,.05-.937l-.924-1.149,1.466-.163a.7.7,0,0,0,.626-.7V10.812A.7.7,0,0,0,23.374,10.113ZM4.5,2.4V4.495H2.4ZM16.242,22.594H1.406V5.9H5.2a.7.7,0,0,0,.7-.7V1.406H16.242V4.945h-.485a.7.7,0,0,0-.7.626l-.165,1.491L13.72,6.127a.7.7,0,0,0-.936.054L11.108,7.865a.7.7,0,0,0-.05.937l.924,1.149-1.466.163a.7.7,0,0,0-.626.7v2.376a.7.7,0,0,0,.626.7l1.491.165-.935,1.173a.7.7,0,0,0,.054.936l1.684,1.676a.7.7,0,0,0,.937.05l1.149-.924.163,1.466a.7.7,0,0,0,.7.626h.485Zm6.352-10.035-1.494.166a.7.7,0,0,0-.589.475,3.74,3.74,0,0,1-.193.466.7.7,0,0,0,.082.752l.942,1.172-.788.791-1.176-.937a.7.7,0,0,0-.753-.079,3.753,3.753,0,0,1-.481.2.7.7,0,0,0-.475.589L17.5,17.648H16.387l-.166-1.494a.7.7,0,0,0-.475-.589,3.746,3.746,0,0,1-.466-.193.7.7,0,0,0-.752.082l-1.172.942-.792-.788.937-1.176a.7.7,0,0,0,.079-.753,3.743,3.743,0,0,1-.2-.481.7.7,0,0,0-.589-.475L11.3,12.558V11.442l1.494-.166a.7.7,0,0,0,.589-.475,3.74,3.74,0,0,1,.193-.466.7.7,0,0,0-.082-.752l-.942-1.172.788-.791,1.176.937a.7.7,0,0,0,.753.079,3.752,3.752,0,0,1,.481-.2.7.7,0,0,0,.475-.589l.166-1.494H17.5l.166,1.494a.7.7,0,0,0,.475.589,3.746,3.746,0,0,1,.466.193.7.7,0,0,0,.752-.082L20.535,7.6l.792.788-.937,1.176a.7.7,0,0,0-.079.753,3.744,3.744,0,0,1,.2.481.7.7,0,0,0,.589.475l1.494.166Z" fill="#ef4523"/><path d="M60.706,157.3h4.265a.7.7,0,0,0,0-1.406H60.706a.7.7,0,0,0,0,1.406Z" transform="translate(-57.19 -148.587)" fill="#ef4523"/><path d="M60.706,217.3h4.265a.7.7,0,0,0,0-1.406H60.706a.7.7,0,0,0,0,1.406Z" transform="translate(-57.19 -205.775)" fill="#ef4523"/><path d="M60.706,277.3h4.265a.7.7,0,0,0,0-1.406H60.706a.7.7,0,0,0,0,1.406Z" transform="translate(-57.19 -262.962)" fill="#ef4523"/><path d="M60.706,337.3h4.265a.7.7,0,0,0,0-1.406H60.706a.7.7,0,0,0,0,1.406Z" transform="translate(-57.19 -320.15)" fill="#ef4523"/><path d="M67.315,395.895H60.706a.7.7,0,0,0,0,1.406h6.609a.7.7,0,0,0,0-1.406Z" transform="translate(-57.19 -377.337)" fill="#ef4523"/></g></svg>