<svg xmlns="http://www.w3.org/2000/svg" width="340.607" height="192.831" viewBox="0 0 340.607 192.831"><g transform="translate(-63.426 -78.199)"><g transform="translate(72.742 78.199)"><path d="M162.6,429.547c.233-1.68-2.136-3.059-3.92-3.2a10.044,10.044,0,0,1-2.535-.218c-1.747-.612-2.442-2.862-4.148-3.583a4.936,4.936,0,0,0-3.972.565,10.335,10.335,0,0,1-3.832,1.488c-1.2.078-2.5-.368-3.546.218-.783.436-1.193,1.338-1.913,1.867a4.521,4.521,0,0,1-2.5.679,7.077,7.077,0,0,0-2.592.42,2.043,2.043,0,0,0-1.286,2.074Z" transform="translate(-105.757 -245.125)" fill="#f5f5f5"/><path d="M613.8,138.816c.379-2.764-3.521-5.035-6.455-5.273-1.395-.114-2.847.1-4.148-.363-2.867-1-4.013-4.7-6.813-5.885-2.074-.881-4.506-.1-6.533.923s-4.034,2.307-6.3,2.452c-1.97.124-4.112-.607-5.838.358-1.286.716-1.96,2.2-3.142,3.075a7.372,7.372,0,0,1-4.112,1.115,11.609,11.609,0,0,0-4.236.69,3.348,3.348,0,0,0-2.121,3.4Z" transform="translate(-313.637 -102.885)" fill="#f5f5f5"/><path d="M93.741,271.471l12.506-1.913A12.661,12.661,0,1,1,95.125,258.9Z" transform="translate(-81.079 -166.4)" fill="#f5f5f5"/><path d="M111.909,259l-1.519,9.7,9.52-1.784S118.51,261.5,111.909,259Z" transform="translate(-95.192 -166.487)" fill="#e0e0e0"/><path d="M550.213,352.612a12.319,12.319,0,0,1,3.241.518l2.11-2.188,4.3,2.592-.964,2.888a12.152,12.152,0,0,1,1.939,2.644l3.044-.057,1.193,4.889-2.717,1.358a12.319,12.319,0,0,1-.519,3.241l2.188,2.11-2.592,4.3-2.888-.964a12.155,12.155,0,0,1-2.644,1.939l.057,3.038-4.889,1.2-1.358-2.717a12.319,12.319,0,0,1-3.241-.519l-2.11,2.188-4.3-2.592.964-2.883a12.276,12.276,0,0,1-1.939-2.644l-3.038.057-1.2-4.889,2.717-1.358a12.319,12.319,0,0,1,.518-3.241l-2.188-2.11,2.592-4.3,2.883.964a12.275,12.275,0,0,1,2.644-1.939l-.057-3.038,4.889-1.2,1.358,2.717Zm-1.286,7.1a5.4,5.4,0,1,0,6.523,3.956A5.4,5.4,0,0,0,548.927,359.71Z" transform="translate(-299.573 -210.256)" fill="#ebebeb"/><path d="M558.051,368.627a4.013,4.013,0,0,1,1.317-.207,5.325,5.325,0,0,1,3.422,1.172,5.383,5.383,0,0,1,1.556,2,5.558,5.558,0,0,1,.477,2.878,5.526,5.526,0,0,1-1.255,2.976A5.512,5.512,0,0,1,557.2,379a5.58,5.58,0,0,1-3.391-4.843,5.46,5.46,0,0,1,2.961-5.118,4.008,4.008,0,0,1,1.27-.425,12.931,12.931,0,0,0-1.213.519,5.382,5.382,0,0,0-2.349,2.592,5.237,5.237,0,0,0-.415,2.39,5.277,5.277,0,0,0,3.256,4.558,5.232,5.232,0,0,0,6.02-1.478,4.869,4.869,0,0,0,.819-1.343,4.93,4.93,0,0,0,.384-1.457,5.273,5.273,0,0,0-1.9-4.666,5.371,5.371,0,0,0-3.287-1.224,12.514,12.514,0,0,0-1.3.124Z" transform="translate(-308.696 -219.172)" fill="#ebebeb"/><path d="M187.847,126.835c.581-4.221-5.382-7.7-9.851-8.057-2.136-.176-4.355.15-6.377-.555-4.386-1.524-6.139-7.191-10.417-9-3.2-1.348-6.886-.15-9.986,1.41s-6.165,3.526-9.628,3.749c-3.018.192-6.289-.923-8.923.55-1.965,1.094-3,3.36-4.806,4.692s-4.086,1.587-6.284,1.706-4.475.14-6.476,1.037-3.629,3.033-3.241,5.185Z" transform="translate(-95.871 -94.088)" fill="#ebebeb"/><path d="M403.327,440.978c.368-2.649-3.37-4.827-6.18-5.055a15.773,15.773,0,0,1-4-.342c-2.748-.959-3.847-4.511-6.528-5.641-2.007-.845-4.314-.093-6.258.887s-3.863,2.209-6.035,2.349c-1.893.119-3.941-.581-5.595.342-1.234.684-1.877,2.105-3.012,2.945a7.094,7.094,0,0,1-3.935,1.068,11.252,11.252,0,0,0-4.06.659,3.21,3.21,0,0,0-2.032,3.261Z" transform="translate(-213.288 -248.619)" fill="#ebebeb"/><path d="M387.029,92.481c.379-2.769-3.521-5.04-6.455-5.278a16.45,16.45,0,0,1-4.174-.358c-2.867-1-4.013-4.708-6.813-5.89-2.074-.881-4.506-.1-6.533.923s-4.034,2.307-6.3,2.452c-1.975.13-4.117-.6-5.843.358-1.286.721-1.955,2.2-3.142,3.075a7.426,7.426,0,0,1-4.112,1.115,11.522,11.522,0,0,0-4.236.695,3.338,3.338,0,0,0-2.121,3.4Z" transform="translate(-204.431 -80.572)" fill="#f5f5f5"/><g transform="translate(70.379 62.67)" opacity="0.73"><path d="M109.371,188.112a.672.672,0,0,0-.614-.4h-2.367c-.013-.05-.027-.1-.042-.15l2.252-.54a.672.672,0,0,0,.488-.464l.985-3.358a.672.672,0,0,0-1.289-.378l-.876,2.985-2.189.525c-.057-.074-.117-.146-.179-.215l1.609-1.229a.672.672,0,0,0,.251-.4l.537-2.686a.672.672,0,0,0-1.317-.263l-.488,2.438-.994.759a2.015,2.015,0,1,0-3.957,0l-.994-.759-.488-2.438a.672.672,0,0,0-1.317.263l.537,2.686a.672.672,0,0,0,.251.4l1.609,1.229c-.062.069-.122.141-.179.215l-2.189-.525-.876-2.985a.672.672,0,0,0-1.289.378l.985,3.358a.672.672,0,0,0,.488.464l2.252.54q-.022.074-.042.15H97.564a.672.672,0,0,0-.614.4l-.9,2.015a.672.672,0,0,0,1.227.546L98,189.056h1.817c.009.107.022.213.039.317l-1.386,1.188a.672.672,0,0,0-.225.62l.224,1.343a.672.672,0,0,0,1.325-.221l-.162-.969.711-.609a3.2,3.2,0,0,0,5.636,0l.711.609-.162.969a.672.672,0,1,0,1.325.221l.224-1.343a.672.672,0,0,0-.225-.62l-1.386-1.188c.017-.1.03-.21.039-.317h1.817l.718,1.616a.672.672,0,1,0,1.227-.546Zm-6.21-4.428a.672.672,0,1,1-.672.672A.672.672,0,0,1,103.161,183.683Zm0,7.388a2.379,2.379,0,1,1,2.015-2.351A2.2,2.2,0,0,1,103.161,191.071Z" transform="translate(-91.699 -172.938)" fill="#ef4523"/><path d="M20.909,1H2.015A2.017,2.017,0,0,0,0,3.015v18.8a2.017,2.017,0,0,0,2.015,2.015H20.909a2.017,2.017,0,0,0,2.015-2.015V3.015A2.017,2.017,0,0,0,20.909,1ZM2.015,2.343H20.909a.672.672,0,0,1,.672.672V6.373H1.343V3.015A.672.672,0,0,1,2.015,2.343ZM20.909,22.491H2.015a.672.672,0,0,1-.672-.672V7.716H21.581v14.1A.672.672,0,0,1,20.909,22.491Z" transform="translate(0 -1)" fill="#ef4523"/><circle cx="0.672" cy="0.672" r="0.672" transform="translate(2.731 2.686)" fill="#ef4523"/><circle cx="0.672" cy="0.672" r="0.672" transform="translate(5.418 2.686)" fill="#ef4523"/><circle cx="0.672" cy="0.672" r="0.672" transform="translate(8.104 2.686)" fill="#ef4523"/><path d="M331.672,62.343h4.03a.672.672,0,1,0,0-1.343h-4.03a.672.672,0,0,0,0,1.343Z" transform="translate(-316.18 -58.314)" fill="#ef4523"/></g></g><g transform="translate(198.67 136.518)"><path d="M356.337,217.2l-16.732,8.814a2.375,2.375,0,0,1-3.2-1l-12.179-23.161a2.364,2.364,0,0,1,.99-3.194l10.614-5.579,12.672,4.148,8.814,16.789A2.364,2.364,0,0,1,356.337,217.2Z" transform="translate(-323.954 -193.064)" fill="#ef4523"/><path d="M346.86,193.05l3.432,6.517a2.2,2.2,0,0,0,2.971.923l6.269-3.292Z" transform="translate(-334.983 -193.05)" fill="#ef4523"/><g transform="translate(15.693 4.148)" opacity="0.2"><path d="M354.22,203.948a2.447,2.447,0,0,0,2.821,1.2l.233-.062c.9-.285,6.787-2.162,6.74-2.281s-.918-1.753-.918-1.753l-6.269,3.292A2.287,2.287,0,0,1,354.22,203.948Z" transform="translate(-354.22 -201.05)"/></g><g transform="translate(11.877 0)" opacity="0.3"><path d="M346.86,193.05l3.432,6.517a2.2,2.2,0,0,0,2.971.923l6.269-3.292Z" transform="translate(-346.86 -193.05)" fill="#fff"/></g><path d="M343.31,206.525a28.508,28.508,0,0,1-3.79,2.188,27.27,27.27,0,0,1-3.951,1.882,31.482,31.482,0,0,1,3.79-2.188A24.607,24.607,0,0,1,343.31,206.525Z" transform="translate(-329.546 -199.535)" fill="#fafafa"/><path d="M352.049,208.567c.047.083-2.774,1.649-6.289,3.5s-6.409,3.282-6.45,3.2,2.769-1.649,6.289-3.5S352.007,208.484,352.049,208.567Z" transform="translate(-331.347 -200.52)" fill="#fafafa"/><path d="M356.32,213.337c.041.083-3.033,1.789-6.865,3.806s-6.984,3.583-7.026,3.5,3.028-1.789,6.865-3.806S356.273,213.254,356.32,213.337Z" transform="translate(-332.85 -202.817)" fill="#fafafa"/><path d="M359.26,218.937c.047.083-3.028,1.789-6.865,3.806s-6.979,3.583-7.026,3.5,3.033-1.789,6.865-3.806S359.218,218.854,359.26,218.937Z" transform="translate(-334.265 -205.513)" fill="#fafafa"/><path d="M362.21,224.537c.042.083-3.033,1.789-6.865,3.806s-6.984,3.583-7.026,3.5,3.028-1.784,6.865-3.806S362.153,224.454,362.21,224.537Z" transform="translate(-335.686 -208.21)" fill="#fafafa"/><path d="M365.15,230.138c.047.088-3.028,1.789-6.865,3.806s-6.979,3.583-7.026,3.5,3.033-1.784,6.87-3.806S365.124,230.065,365.15,230.138Z" transform="translate(-337.101 -210.907)" fill="#fafafa"/></g><g transform="translate(131.78 204.85)"><path d="M20.537,62.976H2.729A2.737,2.737,0,0,1,0,60.247V46.409A2.737,2.737,0,0,1,2.729,43.68H20.536a2.737,2.737,0,0,1,2.729,2.729V60.247A2.737,2.737,0,0,1,20.537,62.976Z" transform="translate(0 -43.68)" fill="#fc6f58"/><path d="M23.265,47.974V46.409a2.737,2.737,0,0,0-2.729-2.729H2.729A2.737,2.737,0,0,0,0,46.409v1.566Z" transform="translate(0 -43.68)"/><circle cx="0.61" cy="0.61" r="0.61" transform="translate(2.044 1.537)" fill="#fc6f58"/><circle cx="0.61" cy="0.61" r="0.61" transform="translate(3.781 1.537)" fill="#49c3e8"/><circle cx="0.61" cy="0.61" r="0.61" transform="translate(5.52 1.537)" fill="#ffd160"/><g transform="translate(8.496 1.176)"><rect width="1.382" height="0.31" transform="translate(11.016 0.8)" fill="#fff"/><path d="M445.962,72.608l-.234-.2.62-.712-.62-.712.234-.2.8.916Z" transform="translate(-433.97 -70.721)" fill="#fff"/><path d="M195.706,71.5h-7.767a.974.974,0,0,1-.971-.971h0a.974.974,0,0,1,.971-.971h7.767a.974.974,0,0,1,.971.971h0A.974.974,0,0,1,195.706,71.5Z" transform="translate(-186.968 -69.56)" fill="#fff"/></g><path d="M208.166,82.786l-.214-.874h.17l.083.4c.022.107.043.218.057.3h0c.015-.092.039-.2.064-.306l.095-.4h.167l.087.4c.022.1.04.2.053.3h0c.015-.1.036-.2.059-.3l.091-.4h.162l-.235.874h-.171l-.091-.412a2.383,2.383,0,0,1-.048-.277h0a2.823,2.823,0,0,1-.058.277l-.1.411Z" transform="translate(-198.503 -80.175)"/><path d="M233.222,82.786l-.214-.874h.17l.083.4c.022.107.043.218.057.3h0c.015-.092.039-.2.064-.306l.095-.4h.167l.087.4c.022.1.04.2.053.3h0c.015-.1.036-.2.059-.3l.091-.4h.162l-.235.874H233.7l-.091-.412a2.386,2.386,0,0,1-.048-.277h0a2.819,2.819,0,0,1-.058.277l-.1.411Z" transform="translate(-222.42 -80.175)"/><path d="M258.278,82.786l-.214-.874h.17l.083.4c.022.107.043.218.057.3h0c.015-.092.039-.2.064-.306l.095-.4h.167l.087.4c.022.1.04.2.053.3h0c.015-.1.036-.2.059-.3l.091-.4h.163l-.235.874h-.171l-.091-.412a2.386,2.386,0,0,1-.048-.277h0a2.81,2.81,0,0,1-.058.277l-.1.411Z" transform="translate(-246.338 -80.175)"/><path d="M282.064,97.055a.1.1,0,0,1,.1-.1.1.1,0,0,1,0,.205A.1.1,0,0,1,282.064,97.055Z" transform="translate(-269.247 -94.531)"/><g transform="translate(2.941 9.867)"><path d="M65.438,260.816l.5,1.94c.11.426.213.82.284,1.215h.024c.087-.387.213-.8.34-1.207l.623-1.948H67.8l.592,1.909c.142.457.252.86.338,1.247h.024a11.44,11.44,0,0,1,.292-1.239l.544-1.917h.686l-1.23,3.817h-.631l-.584-1.822a12.725,12.725,0,0,1-.338-1.253h-.016a11.284,11.284,0,0,1-.347,1.261l-.615,1.814H65.88l-1.152-3.817Z" transform="translate(-64.728 -260.816)" fill="#fff"/><path d="M195.19,260.816l.5,1.94c.11.426.213.82.284,1.215H196c.087-.387.213-.8.34-1.207l.623-1.948h.583l.592,1.909c.142.457.252.86.338,1.247h.024a11.44,11.44,0,0,1,.292-1.239l.544-1.917h.686l-1.23,3.817h-.631l-.584-1.822a12.728,12.728,0,0,1-.338-1.253h-.016a11.284,11.284,0,0,1-.347,1.261l-.615,1.814h-.631l-1.153-3.817Z" transform="translate(-188.584 -260.816)" fill="#fff"/><path d="M324.958,260.816l.5,1.94c.11.426.213.82.284,1.215h.024c.086-.387.213-.8.34-1.207l.623-1.948h.583l.592,1.909c.142.457.252.86.338,1.247h.024a11.44,11.44,0,0,1,.292-1.239l.544-1.917h.686l-1.23,3.817h-.631l-.584-1.822a12.732,12.732,0,0,1-.338-1.253h-.016a11.291,11.291,0,0,1-.347,1.261l-.615,1.814H325.4l-1.152-3.817Z" transform="translate(-312.455 -260.816)" fill="#fff"/></g></g><g transform="translate(63.426 134.197)"><path d="M373.967,266.326c-5.7-5.283-15.814-4.666-20.833,1.281-1.975,2.344-3.318,5.413-6.035,6.834-4.148,2.183-9.208-.57-13.9-.171a10.709,10.709,0,0,0-9.333,11.516c.306,2.468,1.478,5.1.316,7.3-1.478,2.805-5.755,2.919-7.554,5.527-1.623,2.359-.358,5.838,2,7.466s5.4,1.83,8.26,1.7,5.766-.518,8.555.1c3.075.695,5.7,2.592,8.654,3.754,7.036,2.821,15.275,1.25,21.777-2.624s11.562-9.794,15.959-15.97" transform="translate(-184.832 -224.278)" fill="#ef4523"/><g transform="translate(129.122 36.959)" opacity="0.8"><path d="M377.4,266.538c-6.04-5.6-16.748-4.942-22.064,1.356-2.092,2.482-3.514,5.733-6.392,7.237-4.393,2.312-9.752-.6-14.716-.181a11.342,11.342,0,0,0-9.884,12.2c.324,2.614,1.565,5.4.335,7.726-1.565,2.971-6.1,3.092-8,5.854-1.719,2.5-.379,6.183,2.12,7.907s5.716,1.938,8.748,1.8,6.106-.549,9.061.11c3.256.736,6.04,2.746,9.165,3.976,7.452,2.987,16.177,1.323,23.063-2.779s12.245-10.373,16.9-16.913" transform="translate(-315.902 -262.725)" fill="#fff"/></g><path d="M390.12,280.717c-4.666-4.552-13.268-3.915-17.188,1.275-2.39,3.168-3.764,8.011-7.7,8.54-2.665.363-5.185-1.644-7.876-1.436-3.578.27-5.74,4.63-4.822,8.094s3.966,5.957,7.166,7.586c11.08,5.626,25.847,2.65,33.889-6.829" transform="translate(-202.369 -231.473)" fill="#ef4523"/><path d="M586.09,235.606l18.635,29.284,10.188-6.927L597.751,222.68" transform="translate(-314.93 -204.997)" fill="#263238"/><path d="M587.946,235.2c.078.031-.482,1.224-.747,2.795s-.156,2.878-.238,2.888a8.156,8.156,0,0,1,.985-5.7Z" transform="translate(-315.277 -211.015)" fill="#455a64"/><path d="M585.177,235.38c.078,0,0,1.286.213,2.841s.6,2.769.518,2.795a9.633,9.633,0,0,1-.736-5.636Z" transform="translate(-314.421 -211.112)" fill="#455a64"/><path d="M424.614,243.776l-12.781-3.946c-15.42,19.635-14.388,41.21,10.432,53.98l13.787-15.441Z" transform="translate(-226.121 -213.254)" fill="#263238"/><path d="M437.759,221.367c-8.182,4.775-12.252,14.829-11.256,24.68,1.094,10.8,8.229,21.32,21.3,24.229l87.9-17.572a26.713,26.713,0,0,0,20.413-33.645h0a26.708,26.708,0,0,0-31.908-18.515Z" transform="translate(-238.016 -193.977)" fill="#e0e0e0"/><path d="M437.707,221.244l.814-.207,2.4-.591,9.245-2.255,34.023-8.244,23.5-5.7,13.1-3.163,3.4-.814,1.747-.332c.29-.057.581-.119.876-.166l.892-.078c.6-.047,1.193-.119,1.789-.15H531.3a14.227,14.227,0,0,1,1.815.124l.913.093.456.052.451.088,1.81.368c.6.14,1.187.342,1.784.519.3.093.6.176.892.28l.866.347.866.358a6.4,6.4,0,0,1,.861.384l1.675.871c.555.306,1.073.674,1.612,1.037.264.176.519.337.793.519l.752.591.757.6.378.3.347.332a26.992,26.992,0,0,1,8.073,13.232,26.717,26.717,0,0,1-.788,16.027,26.988,26.988,0,0,1-10.193,12.962,26.356,26.356,0,0,1-6.362,3.147,54.118,54.118,0,0,1-6.834,1.6l-13.481,2.691L493,261.23l-45.2,9.017h-.047a32.312,32.312,0,0,1-6.673-2.37,26.132,26.132,0,0,1-9.8-8.55,30.1,30.1,0,0,1-2.852-5.278c-.187-.446-.332-.907-.518-1.353a11.919,11.919,0,0,1-.441-1.343c-.13-.451-.254-.9-.378-1.343l-.28-1.333a11.788,11.788,0,0,1-.233-1.322c-.057-.436-.119-.871-.176-1.3s-.062-.861-.093-1.286-.057-.845-.052-1.26a28.075,28.075,0,0,1,1.275-8.991,25.651,25.651,0,0,1,3.111-6.58,21.19,21.19,0,0,1,3.484-4.065c.27-.239.518-.482.762-.679l.716-.544.6-.461.518-.337.959-.6-.944.627-.518.342-.6.467-.684.544c-.244.2-.487.441-.757.684a21.189,21.189,0,0,0-3.448,4.07,25.526,25.526,0,0,0-3.085,6.564,28.2,28.2,0,0,0-1.25,8.954,10.206,10.206,0,0,0,.052,1.255c.052.42.052.85.1,1.281s.114.861.176,1.3a11.807,11.807,0,0,0,.233,1.312c.093.436.187.881.28,1.327s.254.881.379,1.333a13,13,0,0,0,.441,1.338c.166.441.311.9.518,1.338a29.9,29.9,0,0,0,2.841,5.242,29.4,29.4,0,0,0,4.2,4.734,29.036,29.036,0,0,0,5.538,3.744,31.843,31.843,0,0,0,6.626,2.344h-.041l45.187-9.084,25.759-5.154,13.481-2.7a53.668,53.668,0,0,0,6.8-1.6,25.887,25.887,0,0,0,6.295-3.111,26.718,26.718,0,0,0,10.1-12.848,26.443,26.443,0,0,0,.783-15.866,26.734,26.734,0,0,0-7.985-13.107l-.347-.327-.358-.254-.747-.586-.747-.586c-.249-.192-.519-.347-.788-.518-.518-.332-1.037-.7-1.592-1l-1.659-.866a8.9,8.9,0,0,0-.85-.384l-.861-.347-.861-.353c-.29-.1-.586-.181-.881-.27-.591-.171-1.172-.379-1.768-.518l-1.789-.363-.446-.093-.456-.047-.9-.093a14.005,14.005,0,0,0-1.8-.13h-1.794c-.6.031-1.187.1-1.773.15l-.887.078c-.29.041-.581.1-.871.161l-1.727.327-3.412.773-13.092,3.147-23.5,5.667-34.039,8.14-9.26,2.23-2.411.57Z" transform="translate(-237.964 -193.855)" fill="#263238"/><path d="M456.964,328.141,445.37,354.5s54.7-5.273,52.368-34.511Z" transform="translate(-247.172 -251.852)" fill="#ef4523"/><path d="M472.725,205.988s-26.3-25.52-59.725-14.772l18.339,24.748Z" transform="translate(-231.586 -188.575)" fill="#ef4523"/><path d="M620.8,199.408c11.288,8.3,18.189,40.733,12.75,51.035,31.991-9.359,38.7-36.813,38.7-36.813C649.125,192.092,620.8,199.408,620.8,199.408Z" transform="translate(-331.643 -193.215)" fill="#ef4523"/><path d="M588.289,227.93s-.062.119-.2.347l-.607,1.006-.99,1.638c-.2.321-.41.669-.633,1.037l-.8,1.141c-.565.8-1.182,1.706-1.882,2.67l-2.442,3.028c-.461.518-.959,1.037-1.462,1.6s-1,1.135-1.555,1.675c-1.151,1.089-2.333,2.276-3.712,3.37a49.775,49.775,0,0,1-9.571,6.326,47.7,47.7,0,0,1-5.89,2.52c-1.037.378-2.105.705-3.158,1.089a30.663,30.663,0,0,1-3.344.861c-9.063,2.007-19.055,4.06-29.554,6.222-20.983,4.335-39.986,8.2-53.747,10.982l-16.3,3.292-4.433.876-1.156.218c-.259.052-.394.067-.394.067l.389-.093,1.151-.249,4.423-.923,16.281-3.36,53.737-11.059c10.484-2.178,20.48-4.226,29.554-6.222a31.82,31.82,0,0,0,3.308-.84c1.073-.394,2.136-.71,3.168-1.089a48.091,48.091,0,0,0,5.869-2.494A50.219,50.219,0,0,0,573.9,245.3c1.374-1.089,2.561-2.266,3.707-3.349.581-.518,1.073-1.125,1.587-1.659s1.006-1.068,1.467-1.592l2.452-3.007c.705-.959,1.327-1.856,1.9-2.65l.8-1.135.643-1.037,1.011-1.623c.275-.43.482-.762.627-1S588.289,227.93,588.289,227.93Z" transform="translate(-247.697 -207.524)" fill="#263238"/><path d="M547.463,270.179a.79.79,0,0,1-.093-.1l-.254-.321-.949-1.244-.684-.907c-.239-.337-.477-.721-.747-1.125-.519-.809-1.172-1.711-1.758-2.779l-.959-1.659c-.332-.576-.622-1.208-.949-1.846-.679-1.265-1.265-2.681-1.913-4.148a61.3,61.3,0,0,1-4.542-20.4c-.041-1.612-.114-3.142-.036-4.578.031-.716,0-1.41.078-2.074s.114-1.3.166-1.908c.078-1.218.28-2.307.41-3.267.078-.477.13-.923.207-1.333s.161-.773.233-1.11c.14-.653.249-1.161.332-1.555.036-.161.067-.29.093-.4s.036-.135.041-.13a.975.975,0,0,1,0,.14,3.347,3.347,0,0,1-.067.4l-.28,1.555c-.062.337-.135.705-.213,1.11s-.114.855-.181,1.338c-.114.959-.3,2.043-.368,3.256-.047.607-.1,1.244-.145,1.9s-.042,1.353-.062,2.074c-.067,1.431,0,2.955.057,4.563a62.262,62.262,0,0,0,4.506,20.325c.638,1.473,1.213,2.888,1.882,4.148.327.638.612,1.265.933,1.846l.944,1.659c.57,1.073,1.2,1.981,1.716,2.795.264.41.518.793.731,1.135s.461.638.659.918c.389.518.69.97.913,1.275l.228.337A.58.58,0,0,1,547.463,270.179Z" transform="translate(-290.11 -203.364)" fill="#263238"/><path d="M460.625,264.934l-55.131,11.407s-.244,5.387,1.11,5.429c1.13.036,42.117-7.357,55.411-9.763a3.588,3.588,0,0,0,2.748-4.718h0A3.629,3.629,0,0,0,460.625,264.934Z" transform="translate(-227.963 -225.308)" fill="#ef4523"/><ellipse cx="12.247" cy="13.175" rx="12.247" ry="13.175" transform="translate(261.691 46.746) rotate(-89.92)" fill="#fafafa"/><path d="M594.119,243.725a1.337,1.337,0,0,1,0-.207c0-.15-.031-.347-.047-.6a2.3,2.3,0,0,0-.031-.446c-.031-.166-.057-.337-.093-.519s-.067-.394-.1-.612-.124-.446-.192-.69a11.926,11.926,0,0,0-.565-1.555,12.588,12.588,0,0,0-4.371-5.138,13.424,13.424,0,0,0-5.4-2.157,12.446,12.446,0,0,0-1.6-.166c-.275,0-.55-.036-.824-.031l-.835.041h-.42l-.425.057-.85.124-.845.2-.43.1-.415.145a12.962,12.962,0,0,0-6.066,4.1,11.407,11.407,0,0,0,0,14.658,12.963,12.963,0,0,0,6.051,4.112l.42.145.43.1.845.2.85.124.42.062h.425l.835.041c.275,0,.55,0,.819-.026a12.241,12.241,0,0,0,1.6-.166,13.227,13.227,0,0,0,5.366-2.147,11.811,11.811,0,0,0,4.962-6.694c.062-.244.14-.467.187-.684s.078-.425.109-.617.067-.363.093-.518,0-.311.031-.441q.031-.384.047-.607a1.523,1.523,0,0,1,.026-.2,1.239,1.239,0,0,1,0,.207v1.053a3.162,3.162,0,0,1-.083.518c-.031.176-.062.4-.093.622s-.119.446-.181.695a11.518,11.518,0,0,1-.555,1.592,12.588,12.588,0,0,1-.97,1.763,12.745,12.745,0,0,1-3.427,3.469,13.481,13.481,0,0,1-5.48,2.2,12.745,12.745,0,0,1-1.623.171c-.275,0-.555.036-.835.031l-.845-.036h-.43l-.43-.062-.866-.124-.861-.2-.436-.1-.425-.145a13.205,13.205,0,0,1-6.186-4.184,11.645,11.645,0,0,1,0-14.99,13.247,13.247,0,0,1,6.222-4.148l.425-.14.436-.1.866-.2.866-.124.425-.057h.43l.85-.036c.28,0,.56.026.835.036a11.863,11.863,0,0,1,1.623.176,13.419,13.419,0,0,1,5.429,2.183,12.651,12.651,0,0,1,3.417,3.479,10.809,10.809,0,0,1,1.519,3.36c.062.244.13.472.176.695s.067.43.093.622.057.368.083.518a2.558,2.558,0,0,1,0,.446v.607A1.278,1.278,0,0,1,594.119,243.725Z" transform="translate(-306.056 -209.186)" fill="#263238"/><path d="M255.727,322.051a9.555,9.555,0,0,1-4.915.41,16.45,16.45,0,0,0-4.962-.14c-2.53.518-4.76,2.406-7.337,2.271-3.572-.187-5.7-4.034-8.861-5.7-3.837-2.074-8.985-.778-12.076-4.594a7.383,7.383,0,0,1-.741-8.171c2.245-4.049,7.43-4.723,11.474-3.266,3.479,1.25,6.326,3.785,9.037,6.294.923.856,1.846,1.716,2.8,2.541a14.834,14.834,0,0,0,11.163,3.521h0a7.539,7.539,0,0,1,5.413,1.556,3.168,3.168,0,0,1,.944,1.239h0a3.043,3.043,0,0,1,.275,1.493A3.137,3.137,0,0,1,255.727,322.051Z" transform="translate(-136.698 -243.263)" fill="#ef4523"/><g transform="translate(77.913 54.718)" opacity="0.8"><path d="M258.238,327.58a8.552,8.552,0,0,1-5.225.523,14.593,14.593,0,0,0-5.275-.179c-2.69.663-5.06,3.074-7.8,2.9-3.8-.238-6.063-5.155-9.42-7.288-4.079-2.65-9.552-.994-12.838-5.87a11.007,11.007,0,0,1-.788-10.442c2.387-5.175,7.9-6.036,12.2-4.174,3.7,1.6,6.725,4.837,9.607,8.043.981,1.093,1.962,2.193,2.977,3.247a14.1,14.1,0,0,0,11.867,4.5h0a7.1,7.1,0,0,1,5.755,1.988,4.055,4.055,0,0,1,1,1.583h0a4.583,4.583,0,0,1,.292,1.908A3.875,3.875,0,0,1,258.238,327.58Z" transform="translate(-215.936 -302.153)" fill="#fff"/></g><path d="M154.473,335.8c-1.037-1.8-4.148-1.841-6.025-.928s-3.152,2.655-4.412,4.3-2.686,3.318-4.666,3.992c-2.11.721-4.407.145-6.637.161s-4.838,1.084-5.185,3.282a4.117,4.117,0,0,0,1.11,3.546,10.157,10.157,0,0,0,3.069,1.991,25.221,25.221,0,0,0,9.333,1.825,13.424,13.424,0,0,0,10.536-5.408c2.416-3.308,5.657-9.063,2.821-12.76" transform="translate(-94.111 -258.738)" fill="#ef4523"/><g transform="translate(32.719 75.088)" opacity="0.8"><path d="M155.748,335.875c-1.086-1.884-4.344-1.928-6.309-.972s-3.3,2.78-4.621,4.5-2.813,3.475-4.887,4.181c-2.21.755-4.615.152-6.95.168s-5.066,1.135-5.43,3.437a4.311,4.311,0,0,0,1.162,3.714,10.637,10.637,0,0,0,3.214,2.085A26.411,26.411,0,0,0,141.7,354.9a14.058,14.058,0,0,0,11.033-5.663c2.53-3.464,5.924-9.491,2.954-13.363" transform="translate(-127.492 -334.29)" fill="#fff"/></g><path d="M67.6,357.479a5.916,5.916,0,0,0-2.421,1.623,2.919,2.919,0,0,0-.617,2.753,1.965,1.965,0,0,0,2.338,1.265,9.633,9.633,0,0,1,1.41-.658c.819-.135,1.555.57,2.354.716a2.217,2.217,0,0,0,2.354-2.25c-.01-1.239-1.037-2.172-2.017-2.9a4.008,4.008,0,0,0-3.4-.544" transform="translate(-63.754 -269.825)" fill="#ef4523"/><g transform="translate(0 87.018)" opacity="0.8"><path d="M68.108,357.506A6.869,6.869,0,0,0,65.3,359.39a3.39,3.39,0,0,0-.716,3.2,2.282,2.282,0,0,0,2.715,1.469,11.187,11.187,0,0,1,1.638-.765c.951-.157,1.806.662,2.733.831a2.574,2.574,0,0,0,2.733-2.613c-.012-1.439-1.2-2.523-2.342-3.372a4.654,4.654,0,0,0-3.95-.632" transform="translate(-64.444 -357.317)" fill="#fff"/></g></g><g transform="matrix(0.966, 0.259, -0.259, 0.966, 117.335, 169.172)"><path d="M17.7,25.658H2.654A2.654,2.654,0,0,1,0,23V2.654A2.654,2.654,0,0,1,2.654,0H15.041l5.309,5.309V23A2.654,2.654,0,0,1,17.7,25.658Z" fill="#fbd9d3"/><path d="M0,0H20.349V4.424A2.654,2.654,0,0,1,17.7,7.078H2.654A2.654,2.654,0,0,1,0,4.424Z" transform="translate(0 18.58)" fill="#ef4523"/><path d="M5.309,5.309H2.654A2.654,2.654,0,0,1,0,2.654V0Z" transform="translate(15.041)" fill="#ef4523"/><path d="M11.059,5.309a.442.442,0,1,0,0-.885H9.732V2.654h1.327a.442.442,0,0,0,0-.885H9.732V.442a.442.442,0,1,0-.885,0V1.77H6.193V.442a.442.442,0,0,0-.885,0V1.77H2.654V.442a.442.442,0,0,0-.885,0V1.77H.442a.442.442,0,0,0,0,.885H1.77v1.77H.442a.442.442,0,1,0,0,.885H1.77v1.77H.442a.442.442,0,0,0,0,.885H1.77V9.29a.442.442,0,1,0,.885,0V7.963H5.309V9.29a.442.442,0,1,0,.885,0V7.963H8.848V9.29a.442.442,0,1,0,.885,0V7.963h1.327a.442.442,0,0,0,0-.885H9.732V5.309ZM8.848,2.654v1.77H6.193V2.654Zm-6.193,0H5.309v1.77H2.654Zm0,4.424V5.309H5.309v1.77Zm6.193,0H6.193V5.309H8.848Z" transform="translate(4.424 5.751)" fill="#ef4523"/><g transform="translate(5.309 19.907)"><path d="M1.327.885h.885a.442.442,0,0,0,0-.885H1.327a1.327,1.327,0,1,0,0,2.654.442.442,0,0,1,0,.885H.442a.442.442,0,0,0,0,.885h.885a1.327,1.327,0,1,0,0-2.654.442.442,0,0,1,0-.885Z" transform="translate(3.539 0)" fill="#fff"/><path d="M2.319.013a.442.442,0,0,0-.536.322L1.327,2.158.872.335A.442.442,0,1,0,.013.55L.9,4.089a.442.442,0,0,0,.858,0L2.641.55A.442.442,0,0,0,2.319.013Z" transform="translate(7.078)" fill="#fff"/><path d="M1.77.885a.59.59,0,0,1,.254.059A.442.442,0,1,0,2.4.143,1.47,1.47,0,0,0,1.77,0,2.03,2.03,0,0,0,0,2.212,2.03,2.03,0,0,0,1.77,4.424,1.47,1.47,0,0,0,2.4,4.281a.442.442,0,1,0-.377-.8.591.591,0,0,1-.254.059c-.48,0-.885-.608-.885-1.327S1.29.885,1.77.885Z" transform="translate(0 0)" fill="#fff"/></g></g><g transform="translate(171.79 166.115)"><path d="M31.535,45.557a1.064,1.064,0,0,0-.4-.34,1.117,1.117,0,0,0-.475-.1,1.253,1.253,0,0,0-.489.1,1.047,1.047,0,0,0-.416.329,1.7,1.7,0,0,0-.287.6,3.511,3.511,0,0,0-.111.9,3.582,3.582,0,0,0,.107.887,1.737,1.737,0,0,0,.277.6,1.111,1.111,0,0,0,.4.34,1.084,1.084,0,0,0,.475.107,1.22,1.22,0,0,0,.489-.1,1.089,1.089,0,0,0,.416-.329,1.661,1.661,0,0,0,.287-.6,3.579,3.579,0,0,0,.111-.9,3.535,3.535,0,0,0-.107-.884A1.778,1.778,0,0,0,31.535,45.557Z" transform="translate(-17.77 -22.245)" fill="#ef4523"/><path d="M29.311,19.769V7.085a1.171,1.171,0,0,0-.279-.908l-5.9-5.9A.959.959,0,0,0,22.46,0H7.748A1.314,1.314,0,0,0,6.5,1.483V19.769ZM18.159,16.728a.507.507,0,1,1-1.014,0V15.207a.507.507,0,0,1,1.014,0ZM22.214,1.719a.26.26,0,0,1,.445-.184l5.117,5.117a.26.26,0,0,1-.184.445H22.214Zm-.507,10.447V10.138a.507.507,0,0,0-.507-.507.507.507,0,1,1,0-1.014,1.523,1.523,0,0,1,1.521,1.521v2.028a1.015,1.015,0,0,0,1.014,1.014.507.507,0,0,1,0,1.014,1.015,1.015,0,0,0-1.014,1.014v2.028A1.523,1.523,0,0,1,21.2,18.755a.507.507,0,1,1,0-1.014.507.507,0,0,0,.507-.507V15.207a2.015,2.015,0,0,1,.7-1.521A2.015,2.015,0,0,1,21.707,12.166Zm-4.055-1.014a.76.76,0,1,1-.76.76A.761.761,0,0,1,17.652,11.152Zm-6.083,2.028a1.015,1.015,0,0,0,1.014-1.014V10.138A1.523,1.523,0,0,1,14.1,8.617a.507.507,0,0,1,0,1.014.507.507,0,0,0-.507.507v2.028a2.015,2.015,0,0,1-.7,1.521,2.015,2.015,0,0,1,.7,1.521v2.028a.507.507,0,0,0,.507.507.507.507,0,0,1,0,1.014,1.523,1.523,0,0,1-1.521-1.521V15.207a1.015,1.015,0,0,0-1.014-1.014.507.507,0,0,1,0-1.014Z" transform="translate(-6.5)" fill="#ef4523"/><path d="M6.5,41v7.6a1.23,1.23,0,0,0,1.248,1.014H28.062A1.23,1.23,0,0,0,29.311,48.6V41Zm5.84,5.356a1.272,1.272,0,0,1-.132.606,1.081,1.081,0,0,1-.353.395,1.408,1.408,0,0,1-.509.208,2.963,2.963,0,0,1-.593.059,2.409,2.409,0,0,1-.357-.031,3.048,3.048,0,0,1-.423-.1q-.218-.066-.419-.149a1.555,1.555,0,0,1-.34-.187l.353-.561a1.034,1.034,0,0,0,.2.1q.128.052.281.1t.319.08a1.519,1.519,0,0,0,.312.034,1.065,1.065,0,0,0,.585-.142.561.561,0,0,0,.232-.482V42.377h.846Zm4.023.371a1.394,1.394,0,0,1-.322.457,1.545,1.545,0,0,1-.513.315,1.912,1.912,0,0,1-.693.118c-.111,0-.225-.006-.343-.017a2.785,2.785,0,0,1-.357-.059,1.869,1.869,0,0,1-.343-.115,1.109,1.109,0,0,1-.281-.177l.145-.6a1.48,1.48,0,0,0,.246.107c.1.034.2.067.308.1s.212.054.319.073a1.717,1.717,0,0,0,.3.028.952.952,0,0,0,.648-.2.738.738,0,0,0,.225-.585.559.559,0,0,0-.159-.4,1.726,1.726,0,0,0-.4-.3q-.239-.135-.517-.27a3.151,3.151,0,0,1-.52-.319,1.663,1.663,0,0,1-.4-.433,1.135,1.135,0,0,1-.159-.623,1.392,1.392,0,0,1,.125-.6,1.348,1.348,0,0,1,.336-.447A1.488,1.488,0,0,1,14.5,42.5a1.8,1.8,0,0,1,.593-.1,3.635,3.635,0,0,1,.644.059,1.42,1.42,0,0,1,.527.191c-.028.06-.06.126-.1.2l-.1.2c-.032.062-.06.115-.083.156a.641.641,0,0,1-.042.069.838.838,0,0,1-.094-.055.7.7,0,0,0-.149-.069,1.063,1.063,0,0,0-.256-.049,2.424,2.424,0,0,0-.409.007.716.716,0,0,0-.264.08.912.912,0,0,0-.222.163.742.742,0,0,0-.153.218.56.56,0,0,0-.055.232.627.627,0,0,0,.159.447,1.563,1.563,0,0,0,.395.3q.235.128.513.249a2.781,2.781,0,0,1,.517.295,1.488,1.488,0,0,1,.4.433,1.259,1.259,0,0,1,.159.669A1.29,1.29,0,0,1,16.363,46.727Zm4.969-.579a2.318,2.318,0,0,1-.451.818,1.892,1.892,0,0,1-.672.492,2.215,2.215,0,0,1-1.684,0,1.886,1.886,0,0,1-.672-.492,2.322,2.322,0,0,1-.451-.818,4.038,4.038,0,0,1,0-2.269,2.323,2.323,0,0,1,.451-.814,1.933,1.933,0,0,1,.672-.5,2.172,2.172,0,0,1,1.684,0,1.927,1.927,0,0,1,.672.5,2.328,2.328,0,0,1,.451.814,4.038,4.038,0,0,1,0,2.269ZM26.36,47.59h-.846l-2-3.52v3.52h-.846V42.482h.846l2,3.52v-3.52h.846Z" transform="translate(-6.5 -20.217)" fill="#ef4523"/></g><g transform="translate(77.589 208.763)"><g transform="translate(0 0)"><g transform="translate(0 0)"><g transform="translate(0.006)"><path d="M16.107,0C11.845,0,8.39,1.26,8.39,2.814V5.123c0,1.555,3.455,2.814,7.717,2.814s7.717-1.259,7.717-2.814V2.814C23.824,1.26,20.369,0,16.107,0Z" transform="translate(-8.39 0)" fill="#ef4523"/></g><g transform="translate(0 6.676)"><path d="M16.082,36.494c-4.069,0-7.424-1.149-7.717-2.606-.014.07,0,3.813,0,3.813,0,1.555,3.455,2.814,7.717,2.814S23.8,39.256,23.8,37.7c0,0,.009-3.744-.005-3.813C23.5,35.345,20.151,36.494,16.082,36.494Z" transform="translate(-8.358 -33.888)" fill="#ef4523"/></g><path d="M23.814,61.464c-.293,1.456-3.641,2.606-7.71,2.606s-7.425-1.15-7.718-2.606v3.813c0,1.555,3.455,2.814,7.717,2.814s7.717-1.26,7.717-2.814Z" transform="translate(-8.381 -49.355)" fill="#ef4523"/></g></g></g></g></svg>