<svg xmlns="http://www.w3.org/2000/svg" width="93.009" height="93" viewBox="0 0 93.009 93"><g transform="translate(36 23.991)"><path d="M29.5,26H34V65a7.5,7.5,0,0,0,7.5,7.5H70V77a4.5,4.5,0,0,1-4.5,4.5h-36A4.5,4.5,0,0,1,25,77V30.5A4.5,4.5,0,0,1,29.5,26Z" transform="translate(-25 -12.491)" fill="#f9836a"/><path d="M37.5,17H60V30.5A4.5,4.5,0,0,0,64.5,35H78V69.5A4.5,4.5,0,0,1,73.5,74h-36A4.5,4.5,0,0,1,33,69.5v-48A4.5,4.5,0,0,1,37.5,17Z" transform="translate(-21 -16.991)" fill="#f9836a"/><path d="M66.5,32h-12A1.5,1.5,0,0,1,53,30.5v-12a1.5,1.5,0,0,1,2.565-1.065l12,12A1.5,1.5,0,0,1,66.5,32Z" transform="translate(-11 -16.994)" fill="#f9836a"/></g><path d="M71.5,10H55V2.5A1.5,1.5,0,0,0,53.5,1h-30A1.5,1.5,0,0,0,22,2.5V10H5.5A4.5,4.5,0,0,0,1,14.5v48A4.5,4.5,0,0,0,5.5,67h66A4.5,4.5,0,0,0,76,62.5v-48A4.5,4.5,0,0,0,71.5,10ZM25,4H52v6H25ZM5.5,13h66A1.5,1.5,0,0,1,73,14.5V28H49a4.5,4.5,0,0,0-4.5-4.5h-12A4.5,4.5,0,0,0,28,28H4V14.5A1.5,1.5,0,0,1,5.5,13ZM10,31H28a4.5,4.5,0,0,0,4.5,4.5h12A4.5,4.5,0,0,0,49,31H67V56.5A1.5,1.5,0,0,1,65.5,58h-54A1.5,1.5,0,0,1,10,56.5Zm36-1.5V31a1.5,1.5,0,0,1-1.5,1.5h-12A1.5,1.5,0,0,1,31,31V28a1.5,1.5,0,0,1,1.5-1.5h12A1.5,1.5,0,0,1,46,28ZM71.5,64H5.5A1.5,1.5,0,0,1,4,62.5V31H7V56.5A4.5,4.5,0,0,0,11.5,61h54A4.5,4.5,0,0,0,70,56.5V31h3V62.5A1.5,1.5,0,0,1,71.5,64Z" transform="translate(-1 -1)" fill="#4a4a4a"/></svg>