<svg xmlns="http://www.w3.org/2000/svg" width="98.465" height="95.289" viewBox="0 0 98.465 95.289"><circle cx="7.941" cy="7.941" r="7.941" transform="translate(57.951 52.41)" fill="#f9836a"/><path d="M71.244,31.4,64.86,27.715l-2.454-6.586A4.825,4.825,0,0,0,57.9,18H51.2a4.85,4.85,0,0,0-4.5,3.129l-2.454,6.588L37.862,31.4l-6.931-1.17a4.826,4.826,0,0,0-4.961,2.335l-3.351,5.8a4.828,4.828,0,0,0,.456,5.463l4.479,5.42v7.367L23.075,62.04a4.839,4.839,0,0,0-.457,5.463l3.351,5.8a4.82,4.82,0,0,0,4.96,2.335l6.932-1.167,6.386,3.688L46.7,84.749a4.826,4.826,0,0,0,4.5,3.129h6.7a4.845,4.845,0,0,0,4.5-3.127l2.457-6.589,6.381-3.683,6.932,1.167a4.823,4.823,0,0,0,4.96-2.336l3.351-5.8a4.823,4.823,0,0,0-.456-5.462l-4.48-5.42V49.254l4.477-5.42a4.839,4.839,0,0,0,.457-5.463l-3.351-5.8a4.822,4.822,0,0,0-4.958-2.339Zm-6.58,7.2a1.588,1.588,0,0,1-2.169.581A15.95,15.95,0,0,0,42.9,42.149a1.588,1.588,0,0,0,.392,2.452l1.429.821a1.56,1.56,0,0,0,1.893-.237A11.1,11.1,0,0,1,64.879,57.058L70.49,60.3a1.6,1.6,0,0,1,.564,2.2,19.078,19.078,0,0,1-26.029,6.945,1.588,1.588,0,1,1,1.588-2.751,15.907,15.907,0,0,0,19.582-2.954,1.6,1.6,0,0,0-.378-2.468l-1.429-.819a1.56,1.56,0,0,0-1.893.237A11.1,11.1,0,0,1,44.246,48.819l-5.457-3.151a1.769,1.769,0,0,1-.618-2.457,19.105,19.105,0,0,1,25.91-6.777,1.588,1.588,0,0,1,.581,2.169Z" transform="translate(11.338 7.412)" fill="#f9836a"/><path d="M73.62,2.047a90.142,90.142,0,0,0-28.342,9.067l-21.93,3.029A29.156,29.156,0,0,0,3.139,26.775,4.764,4.764,0,0,0,6.156,34.1L15.9,36.052l-1.372,9.622a1.588,1.588,0,0,0,.449,1.348L34.034,66.08a1.588,1.588,0,0,0,1.347.449l9.629-1.377L46.96,74.9a4.764,4.764,0,0,0,7.326,3.017,29.153,29.153,0,0,0,12.634-20.2L69.945,35.78A90.152,90.152,0,0,0,79.01,7.438a4.764,4.764,0,0,0-5.39-5.392ZM6.783,30.984A1.588,1.588,0,0,1,5.777,28.54,26,26,0,0,1,23.784,17.286l14.134-1.953C26.356,22.7,20.794,29.675,17.159,33.06ZM35.719,63.275,17.783,45.339l1.028-7.186,24.1,24.1Zm28.051-6A25.99,25.99,0,0,1,52.517,75.283a1.588,1.588,0,0,1-2.444-1.008L48,63.892c3.494-3.751,10.494-9.411,17.727-20.76Zm12.1-50.286C71,41.015,48.162,58.625,46.274,61.125L19.933,34.784c2.649-2,19.786-24.684,54.133-29.592a1.588,1.588,0,0,1,1.8,1.8Z" transform="translate(-0.218 -1.999)" fill="#4a4a4a"/><path d="M26.41,44.172a1.588,1.588,0,0,0-1.588,1.588A12.719,12.719,0,0,1,12.117,58.465H5.764a1.588,1.588,0,0,1-1.588-1.588V50.524A12.719,12.719,0,0,1,16.881,37.819a1.588,1.588,0,1,0,0-3.176A15.9,15.9,0,0,0,1,50.524v6.353a4.764,4.764,0,0,0,4.764,4.764h6.353A15.9,15.9,0,0,0,28,45.76a1.588,1.588,0,0,0-1.588-1.588Z" transform="translate(-1 17.2)" fill="#4a4a4a"/><path d="M14.744,40.407A1.591,1.591,0,1,0,12.6,38.053l-1.7,1.555a11.955,11.955,0,0,0-3.9,9.2A1.588,1.588,0,0,0,8.581,50.35a12.051,12.051,0,0,0,9.352-3.812l1.347-1.447a1.588,1.588,0,1,0-2.324-2.165l-1.348,1.449a8.813,8.813,0,0,1-5.331,2.73,8.781,8.781,0,0,1,2.76-5.146Z" transform="translate(2.527 18.962)" fill="#4a4a4a"/><path d="M34.823,15.143A10.323,10.323,0,1,0,45.146,25.466,10.323,10.323,0,0,0,34.823,15.143Zm0,17.469a7.147,7.147,0,1,1,7.147-7.147A7.147,7.147,0,0,1,34.823,32.612Z" transform="translate(12.821 5.732)" fill="#4a4a4a"/></svg>