<svg xmlns="http://www.w3.org/2000/svg" width="92" height="93.508" viewBox="0 0 92 93.508"><path d="M32.074,69.754V66.738a1.508,1.508,0,0,1,3.016,0v3.016h33.18V66.738a1.508,1.508,0,0,1,3.016,0v3.016H84.861V39.59a4.525,4.525,0,0,0-4.525-4.525h-18.1V27.525A4.525,4.525,0,0,0,57.713,23H45.648a4.525,4.525,0,0,0-4.525,4.525v7.541h-18.1A4.525,4.525,0,0,0,18.5,39.59V69.754Zm12.066-37.7H59.221v3.016H44.139Z" transform="translate(7.139 10.18)" fill="#f9836a"/><path d="M71.287,56v3.016a1.508,1.508,0,1,1-3.016,0V56H35.09v3.016a1.508,1.508,0,1,1-3.016,0V56H18.5v6.033a4.525,4.525,0,0,0,4.525,4.525H80.336a4.525,4.525,0,0,0,4.525-4.525V56Z" transform="translate(7.139 26.951)" fill="#f9836a"/><path d="M75.4,73.393H73.894V32.672a4.525,4.525,0,0,0-4.525-4.525H49.762V5.525A4.525,4.525,0,0,0,45.238,1H9.041A4.525,4.525,0,0,0,4.516,5.525V73.393H3.008a1.508,1.508,0,0,0,0,3.016H75.4a1.508,1.508,0,0,0,0-3.016ZM70.877,46.246H49.762V40.213H70.877Zm-24.131,0H7.533V40.213H46.746ZM7.533,37.2V31.164H46.746V37.2Zm0-9.049V22.115H46.746v6.033ZM46.746,19.1H7.533V13.066H46.746ZM7.533,49.262H46.746V55.3H7.533Zm42.23,0H70.877V55.3H49.762Zm21.115,9.049V73.393H49.762V58.312Zm0-25.639V37.2H49.762V31.164H69.369A1.508,1.508,0,0,1,70.877,32.672ZM9.041,4.016h36.2a1.508,1.508,0,0,1,1.508,1.508v4.525H7.533V5.525A1.508,1.508,0,0,1,9.041,4.016Zm-1.508,54.3H46.746V73.393H36.189V67.361a4.525,4.525,0,0,0-4.525-4.525H22.615a4.525,4.525,0,0,0-4.525,4.525v6.033H7.533Zm21.115,7.541h3.016a1.508,1.508,0,0,1,1.508,1.508v6.033H28.648Zm-3.016,7.541H21.107V67.361a1.508,1.508,0,0,1,1.508-1.508h3.016Z" transform="translate(-1.5 -1)" fill="#4a4a4a"/></svg>