<svg xmlns="http://www.w3.org/2000/svg" width="94.132" height="94.196" viewBox="0 0 94.132 94.196"><g transform="translate(27.329 21.319)"><path d="M81.249,21.073H75.176v6.073a1.518,1.518,0,0,1-3.037,0V16.518a1.518,1.518,0,1,0-3.037,0v4.555H38.737v6.073a1.518,1.518,0,1,1-3.037,0V16.518a1.518,1.518,0,1,0-3.037,0v4.555h-9.11A4.555,4.555,0,0,0,19,25.628v9.11H85.8v-9.11A4.555,4.555,0,0,0,81.249,21.073Z" transform="translate(-19 -15)" fill="#f9836a"/><rect width="15.183" height="15.183" rx="1" transform="translate(39.475 45.548)" fill="#f9836a"/><path d="M19,75.548A4.555,4.555,0,0,0,23.555,80.1H81.249A4.555,4.555,0,0,0,85.8,75.548V30H19ZM55.438,54.292a4.555,4.555,0,0,1,4.555-4.555H72.139a4.555,4.555,0,0,1,4.555,4.555V66.438a4.555,4.555,0,0,1-4.555,4.555H59.993a4.555,4.555,0,0,1-4.555-4.555Z" transform="translate(-19 -7.226)" fill="#f9836a"/></g><path d="M73.236,49.483a4.564,4.564,0,0,0-4.968-2.429l-7.307,1.462a28.862,28.862,0,1,0-44.649-.82l-5.139,3.428H2.518A1.518,1.518,0,0,0,1,52.643V70.862A1.518,1.518,0,0,0,2.518,72.38h8.958l18.842,3.767a13.587,13.587,0,0,0,8.229-.911l34.56-15.36a4.555,4.555,0,0,0,2.224-6.2ZM13.146,29.869A25.81,25.81,0,1,1,55.588,49.589l-6,1.2V46.569a4.555,4.555,0,0,0-4.555-4.555H27.524a16.7,16.7,0,0,1-5.268-12.146,1.518,1.518,0,0,0-3.037,0,19.725,19.725,0,0,0,4.72,12.767,2.45,2.45,0,0,0-.255.152l-4.839,3.226a25.75,25.75,0,0,1-5.7-16.145ZM10.11,69.343H4.037V54.161H10.11ZM71.874,57.1,37.314,72.46a10.573,10.573,0,0,1-6.4.711L13.146,69.617V53.455l12.222-8.149a1.534,1.534,0,0,1,.843-.255H45.03a1.518,1.518,0,0,1,1.518,1.518V51.4l-21.559,4.31a1.518,1.518,0,1,0,.6,2.976l43.27-8.654a1.518,1.518,0,0,1,1.656.809l2.1,4.193a1.518,1.518,0,0,1-.732,2.066Z" transform="translate(-1 -0.958)" fill="#4a4a4a"/><path d="M26.518,10.037a16.721,16.721,0,0,1,16.7,16.7,1.518,1.518,0,1,0,3.037,0A19.76,19.76,0,0,0,26.518,7a1.518,1.518,0,0,0,0,3.037Z" transform="translate(11.438 2.173)" fill="#4a4a4a"/></svg>