<svg xmlns="http://www.w3.org/2000/svg" width="48" height="48" viewBox="0 0 48 48"><defs><style>.a{fill:none;}.b{fill:#ef4523;}</style></defs><path class="a" d="M0,0H48V48H0Z"/><path class="b" d="M39.5,10.333H37.417V27a2.089,2.089,0,0,1-2.083,2.083h-25v2.083A4.179,4.179,0,0,0,14.5,35.333H35.333l8.333,8.333V14.5A4.179,4.179,0,0,0,39.5,10.333ZM33.25,20.75V6.167A4.179,4.179,0,0,0,29.083,2H6.167A4.179,4.179,0,0,0,2,6.167V33.25l8.333-8.333h18.75A4.179,4.179,0,0,0,33.25,20.75Z" transform="translate(1.167 1.167)"/></svg>